<svg width="243" height="38" viewBox="0 0 243 38" fill="none" xmlns="http://www.w3.org/2000/svg">
<path d="M19.4631 37.3807C16.4422 37.3807 13.7528 36.9688 11.3949 36.1449C9.03693 35.3305 7.04356 34.1326 5.41477 32.5511C3.78598 30.9792 2.54545 29.0568 1.69318 26.7841C0.840909 24.5114 0.414773 21.9261 0.414773 19.0284C0.414773 16.1686 0.840909 13.5739 1.69318 11.2443C2.55492 8.91477 3.80966 6.91667 5.45739 5.25C7.10511 3.57386 9.11742 2.28598 11.4943 1.38636C13.8807 0.486741 16.5985 0.0369301 19.6477 0.0369301C22.4697 0.0369301 24.9886 0.448863 27.2045 1.27273C29.4299 2.09659 31.3144 3.27083 32.858 4.79545C34.411 6.31061 35.59 8.11458 36.3949 10.2074C37.2093 12.2907 37.6117 14.5966 37.6023 17.125C37.6117 18.8674 37.4602 20.4678 37.1477 21.9261C36.8352 23.3845 36.3428 24.6581 35.6705 25.7472C35.0076 26.8267 34.1364 27.6837 33.0568 28.3182C31.9773 28.9432 30.6705 29.2983 29.1364 29.3835C28.0379 29.4688 27.1477 29.3883 26.4659 29.142C25.7841 28.8958 25.2633 28.5312 24.9034 28.0483C24.553 27.5559 24.3258 26.983 24.2216 26.3295H24.0511C23.8239 26.8977 23.3788 27.4138 22.7159 27.8778C22.053 28.3324 21.2434 28.6875 20.2869 28.9432C19.34 29.1894 18.3314 29.2794 17.2614 29.2131C16.1439 29.1468 15.0833 28.8864 14.0795 28.4318C13.0852 27.9773 12.1998 27.3191 11.4233 26.4574C10.6563 25.5956 10.0502 24.5303 9.60511 23.2614C9.16951 21.9924 8.94697 20.5246 8.9375 18.858C8.94697 17.2102 9.17898 15.7756 9.63352 14.554C10.0975 13.3324 10.7083 12.3049 11.4659 11.4716C12.233 10.6383 13.0852 9.98485 14.0227 9.51136C14.9602 9.03788 15.9025 8.73485 16.8494 8.60227C17.9195 8.44129 18.9328 8.44129 19.8892 8.60227C20.8456 8.76326 21.6506 9.02367 22.304 9.38352C22.9669 9.74337 23.3788 10.1316 23.5398 10.5483H23.7386V8.95739H28.1847V22.821C28.1941 23.4744 28.3409 23.9811 28.625 24.3409C28.9091 24.7008 29.2926 24.8807 29.7756 24.8807C30.429 24.8807 30.9735 24.5919 31.4091 24.0142C31.8542 23.4366 32.1856 22.5511 32.4034 21.358C32.6307 20.1648 32.7443 18.6449 32.7443 16.7983C32.7443 15.018 32.5076 13.4555 32.0341 12.1108C31.5701 10.7566 30.9167 9.60606 30.0739 8.65909C29.2405 7.70265 28.2699 6.92614 27.1619 6.32955C26.054 5.73295 24.8513 5.29735 23.554 5.02273C22.2661 4.74811 20.9403 4.6108 19.5767 4.6108C17.2188 4.6108 15.1591 4.97064 13.3977 5.69034C11.6364 6.40057 10.1686 7.39962 8.99432 8.6875C7.82008 9.97538 6.93939 11.4858 6.35227 13.2188C5.77462 14.9422 5.48106 16.822 5.47159 18.858C5.48106 21.1023 5.79356 23.0909 6.40909 24.8239C7.03409 26.5473 7.95265 27.9962 9.16477 29.1705C10.3769 30.3447 11.8731 31.2348 13.6534 31.8409C15.4337 32.447 17.4792 32.75 19.7898 32.75C20.8788 32.75 21.9441 32.6695 22.9858 32.5085C24.0275 32.357 24.9697 32.1676 25.8125 31.9403C26.6553 31.7225 27.3324 31.5095 27.8438 31.3011L29.25 35.4205C28.6534 35.7614 27.8438 36.0786 26.821 36.3722C25.8078 36.6752 24.6619 36.9167 23.3835 37.0966C22.1146 37.286 20.8078 37.3807 19.4631 37.3807ZM18.8097 24.5398C19.965 24.5398 20.8835 24.3172 21.5653 23.8722C22.2566 23.4271 22.7491 22.7689 23.0426 21.8977C23.3456 21.017 23.4877 19.9328 23.4688 18.6449C23.4593 17.5085 23.3125 16.5473 23.0284 15.7614C22.7538 14.9659 22.2756 14.3646 21.5938 13.9574C20.9214 13.5407 19.9839 13.3324 18.7812 13.3324C17.7301 13.3324 16.8352 13.5549 16.0966 14C15.3674 14.4451 14.8087 15.0701 14.4205 15.875C14.0417 16.6705 13.8475 17.608 13.8381 18.6875C13.8475 19.6913 14.0085 20.643 14.321 21.5426C14.6335 22.4328 15.1496 23.1572 15.8693 23.7159C16.589 24.2652 17.5691 24.5398 18.8097 24.5398Z" fill="#FF0000"/>
<path d="M46.8303 17.6477V29H41.3842V9.36364H46.5746V12.8281H46.8047C47.2393 11.6861 47.968 10.7827 48.9908 10.1179C50.0135 9.4446 51.2536 9.10795 52.7109 9.10795C54.0746 9.10795 55.2635 9.40625 56.2777 10.0028C57.2919 10.5994 58.0803 11.4517 58.6428 12.5597C59.2053 13.6591 59.4865 14.9716 59.4865 16.4972V29H54.0405V17.4688C54.049 16.267 53.7422 15.3295 53.12 14.6562C52.4979 13.9744 51.6413 13.6335 50.5504 13.6335C49.8175 13.6335 49.1697 13.7912 48.6072 14.1065C48.0533 14.4219 47.6186 14.8821 47.3033 15.4872C46.9964 16.0838 46.8388 16.804 46.8303 17.6477ZM76.3711 20.6392V9.36364H81.8171V29H76.5884V25.4332H76.3839C75.9407 26.5838 75.2035 27.5085 74.1722 28.2074C73.1495 28.9062 71.9009 29.2557 70.4265 29.2557C69.114 29.2557 67.9592 28.9574 66.962 28.3608C65.9648 27.7642 65.185 26.9162 64.6225 25.8168C64.0685 24.7173 63.7873 23.4006 63.7788 21.8665V9.36364H69.2248V20.8949C69.2333 22.054 69.5444 22.9702 70.158 23.6435C70.7717 24.3168 71.5941 24.6534 72.6254 24.6534C73.2816 24.6534 73.8952 24.5043 74.4663 24.206C75.0373 23.8991 75.4975 23.4474 75.8469 22.8509C76.2049 22.2543 76.3796 21.517 76.3711 20.6392ZM95.0199 36.7727C93.2557 36.7727 91.7429 36.5298 90.4815 36.044C89.2287 35.5668 88.2315 34.9148 87.4901 34.0881C86.7486 33.2614 86.267 32.3324 86.0455 31.3011L91.0824 30.6236C91.2358 31.0156 91.4787 31.3821 91.8111 31.723C92.1435 32.0639 92.5824 32.3366 93.1278 32.5412C93.6818 32.7543 94.3551 32.8608 95.1477 32.8608C96.3324 32.8608 97.3082 32.571 98.0753 31.9915C98.8509 31.4205 99.2386 30.4616 99.2386 29.1151V25.5227H99.0085C98.7699 26.0682 98.4119 26.5838 97.9347 27.0696C97.4574 27.5554 96.8438 27.9517 96.0938 28.2585C95.3438 28.5653 94.4489 28.7188 93.4091 28.7188C91.9347 28.7188 90.5923 28.3778 89.3821 27.696C88.1804 27.0057 87.2216 25.9531 86.5057 24.5384C85.7983 23.1151 85.4446 21.3168 85.4446 19.1435C85.4446 16.919 85.8068 15.0611 86.5312 13.5696C87.2557 12.0781 88.2188 10.9616 89.4205 10.2202C90.6307 9.47869 91.956 9.10795 93.3963 9.10795C94.4957 9.10795 95.4162 9.29545 96.1577 9.67045C96.8991 10.0369 97.4957 10.4972 97.9474 11.0511C98.4077 11.5966 98.7614 12.1335 99.0085 12.6619H99.2131V9.36364H104.621V29.1918C104.621 30.8622 104.212 32.2599 103.393 33.3849C102.575 34.5099 101.442 35.3537 99.9929 35.9162C98.5526 36.4872 96.8949 36.7727 95.0199 36.7727ZM95.1349 24.6278C96.0128 24.6278 96.7543 24.4105 97.3594 23.9759C97.973 23.5327 98.4418 22.902 98.7656 22.0838C99.098 21.2571 99.2642 20.2685 99.2642 19.1179C99.2642 17.9673 99.1023 16.9702 98.7784 16.1264C98.4545 15.2741 97.9858 14.6136 97.3722 14.1449C96.7585 13.6761 96.0128 13.4418 95.1349 13.4418C94.2401 13.4418 93.4858 13.6847 92.8722 14.1705C92.2585 14.6477 91.794 15.3125 91.4787 16.1648C91.1634 17.017 91.0057 18.0014 91.0057 19.1179C91.0057 20.2514 91.1634 21.2315 91.4787 22.0582C91.8026 22.8764 92.267 23.5114 92.8722 23.9631C93.4858 24.4062 94.2401 24.6278 95.1349 24.6278ZM108.955 29V9.36364H114.234V12.7898H114.439C114.797 11.571 115.398 10.6506 116.241 10.0284C117.085 9.39773 118.057 9.08239 119.156 9.08239C119.429 9.08239 119.723 9.09943 120.038 9.13352C120.354 9.16761 120.631 9.21449 120.869 9.27415V14.1065C120.614 14.0298 120.26 13.9616 119.808 13.902C119.357 13.8423 118.943 13.8125 118.568 13.8125C117.767 13.8125 117.051 13.9872 116.42 14.3366C115.798 14.6776 115.304 15.1548 114.938 15.7685C114.58 16.3821 114.401 17.0895 114.401 17.8906V29H108.955ZM128.722 29.3707C127.469 29.3707 126.353 29.1534 125.373 28.7188C124.392 28.2756 123.617 27.6236 123.046 26.7628C122.483 25.8935 122.202 24.8111 122.202 23.5156C122.202 22.4247 122.402 21.5085 122.803 20.767C123.203 20.0256 123.749 19.429 124.439 18.9773C125.13 18.5256 125.914 18.1847 126.792 17.9545C127.678 17.7244 128.607 17.5625 129.578 17.4688C130.721 17.3494 131.641 17.2386 132.34 17.1364C133.039 17.0256 133.546 16.8636 133.861 16.6506C134.176 16.4375 134.334 16.1222 134.334 15.7045V15.6278C134.334 14.8182 134.078 14.1918 133.567 13.7486C133.064 13.3054 132.348 13.0838 131.419 13.0838C130.439 13.0838 129.659 13.3011 129.08 13.7358C128.5 14.1619 128.117 14.6989 127.929 15.3466L122.892 14.9375C123.148 13.7443 123.651 12.7131 124.401 11.8438C125.151 10.9659 126.118 10.2926 127.303 9.82386C128.496 9.34659 129.877 9.10795 131.445 9.10795C132.536 9.10795 133.58 9.2358 134.577 9.49148C135.583 9.74716 136.473 10.1435 137.249 10.6804C138.033 11.2173 138.651 11.9077 139.103 12.7514C139.554 13.5866 139.78 14.5881 139.78 15.7557V29H134.615V26.277H134.462C134.147 26.8906 133.725 27.4318 133.196 27.9006C132.668 28.3608 132.033 28.723 131.292 28.9872C130.55 29.2429 129.694 29.3707 128.722 29.3707ZM130.282 25.6122C131.083 25.6122 131.79 25.4545 132.404 25.1392C133.017 24.8153 133.499 24.3807 133.848 23.8352C134.198 23.2898 134.373 22.6719 134.373 21.9815V19.8977C134.202 20.0085 133.968 20.1108 133.669 20.2045C133.38 20.2898 133.051 20.3707 132.685 20.4474C132.319 20.5156 131.952 20.5795 131.586 20.6392C131.219 20.6903 130.887 20.7372 130.588 20.7798C129.949 20.8736 129.391 21.0227 128.914 21.2273C128.436 21.4318 128.066 21.7088 127.801 22.0582C127.537 22.3991 127.405 22.8253 127.405 23.3366C127.405 24.0781 127.674 24.6449 128.211 25.0369C128.756 25.4205 129.446 25.6122 130.282 25.6122ZM149.451 17.6477V29H144.005V2.81818H149.298V12.8281H149.528C149.971 11.669 150.687 10.7614 151.676 10.1051C152.664 9.44034 153.904 9.10795 155.396 9.10795C156.76 9.10795 157.949 9.40625 158.963 10.0028C159.985 10.5909 160.778 11.4389 161.341 12.5469C161.912 13.6463 162.193 14.9631 162.184 16.4972V29H156.738V17.4688C156.747 16.2585 156.44 15.3168 155.818 14.6435C155.204 13.9702 154.343 13.6335 153.235 13.6335C152.494 13.6335 151.838 13.7912 151.267 14.1065C150.704 14.4219 150.261 14.8821 149.937 15.4872C149.622 16.0838 149.46 16.804 149.451 17.6477ZM175.419 29.3835C173.399 29.3835 171.661 28.9744 170.203 28.1562C168.754 27.3295 167.638 26.1619 166.854 24.6534C166.07 23.1364 165.678 21.3423 165.678 19.2713C165.678 17.2514 166.07 15.4787 166.854 13.9531C167.638 12.4276 168.741 11.2386 170.165 10.3864C171.597 9.53409 173.276 9.10795 175.202 9.10795C176.497 9.10795 177.703 9.31676 178.82 9.73438C179.945 10.1435 180.925 10.7614 181.76 11.5881C182.604 12.4148 183.26 13.4545 183.729 14.7074C184.197 15.9517 184.432 17.4091 184.432 19.0795V20.5753H167.851V17.2003H179.305C179.305 16.4162 179.135 15.7216 178.794 15.1165C178.453 14.5114 177.98 14.0384 177.375 13.6974C176.778 13.348 176.084 13.1733 175.291 13.1733C174.464 13.1733 173.732 13.3651 173.092 13.7486C172.462 14.1236 171.967 14.6307 171.609 15.2699C171.251 15.9006 171.068 16.6037 171.06 17.3793V20.5881C171.06 21.5597 171.239 22.3991 171.597 23.1065C171.963 23.8139 172.479 24.3594 173.143 24.7429C173.808 25.1264 174.597 25.3182 175.509 25.3182C176.114 25.3182 176.668 25.233 177.17 25.0625C177.673 24.892 178.104 24.6364 178.462 24.2955C178.82 23.9545 179.092 23.5369 179.28 23.0426L184.317 23.375C184.061 24.5852 183.537 25.642 182.744 26.5455C181.96 27.4403 180.946 28.1392 179.702 28.642C178.466 29.1364 177.038 29.3835 175.419 29.3835ZM196.935 29.3835C194.915 29.3835 193.176 28.9744 191.719 28.1562C190.27 27.3295 189.153 26.1619 188.369 24.6534C187.585 23.1364 187.193 21.3423 187.193 19.2713C187.193 17.2514 187.585 15.4787 188.369 13.9531C189.153 12.4276 190.257 11.2386 191.68 10.3864C193.112 9.53409 194.791 9.10795 196.717 9.10795C198.013 9.10795 199.219 9.31676 200.335 9.73438C201.46 10.1435 202.44 10.7614 203.276 11.5881C204.119 12.4148 204.776 13.4545 205.244 14.7074C205.713 15.9517 205.947 17.4091 205.947 19.0795V20.5753H189.366V17.2003H200.821C200.821 16.4162 200.651 15.7216 200.31 15.1165C199.969 14.5114 199.496 14.0384 198.891 13.6974C198.294 13.348 197.599 13.1733 196.807 13.1733C195.98 13.1733 195.247 13.3651 194.608 13.7486C193.977 14.1236 193.483 14.6307 193.125 15.2699C192.767 15.9006 192.584 16.6037 192.575 17.3793V20.5881C192.575 21.5597 192.754 22.3991 193.112 23.1065C193.479 23.8139 193.994 24.3594 194.659 24.7429C195.324 25.1264 196.112 25.3182 197.024 25.3182C197.629 25.3182 198.183 25.233 198.686 25.0625C199.189 24.892 199.619 24.6364 199.977 24.2955C200.335 23.9545 200.608 23.5369 200.795 23.0426L205.832 23.375C205.577 24.5852 205.053 25.642 204.26 26.5455C203.476 27.4403 202.462 28.1392 201.217 28.642C199.982 29.1364 198.554 29.3835 196.935 29.3835ZM219.946 9.36364V13.4545H208.121V9.36364H219.946ZM210.805 4.65909H216.251V22.9659C216.251 23.4687 216.328 23.8608 216.482 24.142C216.635 24.4148 216.848 24.6065 217.121 24.7173C217.402 24.8281 217.726 24.8835 218.092 24.8835C218.348 24.8835 218.604 24.8622 218.859 24.8196C219.115 24.7685 219.311 24.7301 219.447 24.7045L220.304 28.7571C220.031 28.8423 219.648 28.9403 219.153 29.0511C218.659 29.1705 218.058 29.2429 217.351 29.2685C216.038 29.3196 214.888 29.1449 213.899 28.7443C212.919 28.3437 212.156 27.7216 211.611 26.8778C211.065 26.0341 210.797 24.9687 210.805 23.6818V4.65909ZM229.362 17.6477V29H223.915V2.81818H229.208V12.8281H229.438C229.881 11.669 230.597 10.7614 231.586 10.1051C232.575 9.44034 233.815 9.10795 235.306 9.10795C236.67 9.10795 237.859 9.40625 238.873 10.0028C239.896 10.5909 240.688 11.4389 241.251 12.5469C241.822 13.6463 242.103 14.9631 242.094 16.4972V29H236.648V17.4688C236.657 16.2585 236.35 15.3168 235.728 14.6435C235.114 13.9702 234.254 13.6335 233.146 13.6335C232.404 13.6335 231.748 13.7912 231.177 14.1065C230.614 14.4219 230.171 14.8821 229.847 15.4872C229.532 16.0838 229.37 16.804 229.362 17.6477Z" fill="white"/>
</svg>
